<svg width="22" height="22" viewBox="0 0 22 22" fill="none" xmlns="http://www.w3.org/2000/svg">
<path fill-rule="evenodd" clip-rule="evenodd" d="M11 22C17.0751 22 22 17.0751 22 11C22 4.92487 17.0751 0 11 0C4.92487 0 0 4.92487 0 11C0 17.0751 4.92487 22 11 22ZM15.3713 20.4437V18.7689C14.7691 18.7564 14.2861 18.6999 13.9223 18.5995C13.571 18.5117 13.2825 18.3361 13.0566 18.0726C12.8434 17.8217 12.6489 17.4516 12.4733 16.9624C13.4644 16.6613 14.2171 16.0779 14.7315 15.2123C15.2458 14.3466 15.503 13.274 15.503 11.9944V9.19046C15.503 7.60974 15.1015 6.35519 14.2986 5.42682C13.5083 4.4859 12.3666 4.01544 10.8737 4.01544C9.38082 4.01544 8.23291 4.4859 7.43 5.42682C6.63964 6.35519 6.24445 7.60974 6.24445 9.19046V11.9944C6.24445 13.5876 6.63964 14.8547 7.43 15.7956C8.23291 16.724 9.38082 17.1882 10.8737 17.1882H10.9302L11.1372 17.7904C11.4759 18.7062 11.9589 19.3773 12.5862 19.8039C13.226 20.2305 14.1544 20.4437 15.3713 20.4437ZM13.0566 6.49945C13.5585 7.12674 13.8094 8.02371 13.8094 9.19046V11.9944C13.8094 13.1736 13.5585 14.0832 13.0566 14.723C12.5674 15.3628 11.8397 15.6827 10.8737 15.6827C9.92027 15.6827 9.19264 15.3628 8.69082 14.723C8.189 14.0832 7.9381 13.1736 7.9381 11.9944V9.19046C7.9381 8.02371 8.189 7.12674 8.69082 6.49945C9.19264 5.85965 9.92027 5.53973 10.8737 5.53973C11.8397 5.53973 12.5674 5.85965 13.0566 6.49945Z" fill="#FDDC4B"/>
</svg>
